<svg width="512" height="512" viewBox="0 0 512 512" fill="none" xmlns="http://www.w3.org/2000/svg">
<path d="M326.58 279.67C232.12 345.35 194.58 435.8 191.74 503.59C191.74 503.59 100.44 452.14 104.74 365.91C109.04 279.68 148.28 279.67 150.39 216.53C152.6 164.35 67.74 113.74 67.74 113.74C67.74 113.74 40 93.17 31 61.23C42.91 84.84 131.26 103.23 238.37 103.23C353.7 103.23 447.21 81.93 447.21 55.79C447.19 55.75 459.2 187.53 326.58 279.67Z" fill="#78D1F1" stroke="#222AF1" stroke-width="15" stroke-linecap="round" stroke-linejoin="round"/>
<path d="M188.59 164C369.99 175.72 478.59 155.66 482.5 89.8799M325.86 313.8C333.33 320.49 337.46 327.8 337.46 335.56C337.46 366.43 271.38 391.45 189.87 391.45C108.36 391.45 42.2803 366.45 42.2803 335.56C42.2803 320.13 58.8003 306.15 85.5103 296.04" stroke="#B48906" stroke-width="15" stroke-linecap="round" stroke-linejoin="round"/>
<path d="M447.19 55.7499C447.19 81.8899 353.68 103.19 238.35 103.19C131.24 103.19 42.9 84.8499 30.98 61.1899C30.3756 59.3951 29.8814 57.565 29.5 55.7099C29.5 29.5999 123 8.40991 238.34 8.40991C353.68 8.40991 447.19 29.5999 447.19 55.7499Z" fill="#78D1F1" stroke="#222AF1" stroke-width="15" stroke-linecap="round" stroke-linejoin="round"/>
</svg>
